<svg width="167" height="48" viewBox="0 0 167 48" fill="none" xmlns="http://www.w3.org/2000/svg">
<path d="M166.055 43.1884C166.055 45.8467 163.924 48 161.289 48H5.30016C2.66572 48 0.527344 45.8467 0.527344 43.1884V4.81784C0.527344 2.1608 2.66572 0 5.30016 0H161.288C163.924 0 166.054 2.1608 166.054 4.81784L166.055 43.1884Z" fill="white"/>
<path d="M40.3137 22.8372C40.2803 19.2039 43.3506 17.4362 43.491 17.3539C41.7522 14.8704 39.057 14.5311 38.1099 14.5041C35.8463 14.2707 33.6505 15.8309 32.4974 15.8309C31.3213 15.8309 29.5456 14.5266 27.6318 14.5649C25.1691 14.6021 22.8652 15.9989 21.6017 18.1678C18.9939 22.5903 20.9388 29.0893 23.4372 32.6641C24.6869 34.4148 26.1473 36.3696 28.0588 36.3008C29.9288 36.2253 30.6274 35.1329 32.8841 35.1329C35.1201 35.1329 35.7761 36.3008 37.7255 36.2568C39.7325 36.2253 40.9961 34.4982 42.2021 32.7317C43.6464 30.7251 44.2264 28.7489 44.2494 28.6474C44.2022 28.6316 40.3516 27.1921 40.3137 22.8372Z" fill="black"/>
<path d="M36.6311 12.1525C37.6369 10.9203 38.3251 9.24397 38.1341 7.54285C36.6783 7.60598 34.8577 8.52925 33.8093 9.73436C32.8818 10.7963 32.0532 12.5369 32.2673 14.1738C33.9026 14.2932 35.5816 13.3655 36.6311 12.1525Z" fill="black"/>
<path d="M62.0887 11.8177C62.0887 13.1445 61.6825 14.1433 60.8712 14.8141C60.1197 15.433 59.0517 15.743 57.6685 15.743C56.9826 15.743 56.3957 15.7137 55.9043 15.6551V8.40527C56.5453 8.30381 57.2358 8.25195 57.9815 8.25195C59.2992 8.25195 60.2923 8.53266 60.9621 9.09406C61.7124 9.72874 62.0887 10.6362 62.0887 11.8177ZM60.8171 11.8504C60.8171 10.9902 60.5846 10.3307 60.1197 9.87079C59.6548 9.41197 58.9758 9.18199 58.0816 9.18199C57.7019 9.18199 57.3785 9.20679 57.1103 9.25865V14.7701C57.2588 14.7927 57.5304 14.8028 57.9251 14.8028C58.848 14.8028 59.5604 14.5514 60.0621 14.0486C60.5639 13.5459 60.8171 12.8131 60.8171 11.8504Z" fill="black"/>
<path d="M68.8318 12.9765C68.8318 13.7938 68.5936 14.4634 68.1172 14.9887C67.6177 15.5287 66.956 15.7982 66.1297 15.7982C65.3334 15.7982 64.6993 15.54 64.2263 15.0214C63.7545 14.504 63.5186 13.8513 63.5186 13.0644C63.5186 12.2415 63.7614 11.5662 64.2493 11.042C64.7373 10.5178 65.3932 10.2551 66.2195 10.2551C67.0158 10.2551 67.6557 10.5133 68.1402 11.0307C68.6005 11.5335 68.8318 12.1828 68.8318 12.9765ZM67.5809 13.0148C67.5809 12.5244 67.4727 12.1039 67.2575 11.7533C67.0043 11.3295 66.6441 11.1175 66.1758 11.1175C65.6913 11.1175 65.323 11.3295 65.0698 11.7533C64.8535 12.1039 64.7465 12.5312 64.7465 13.0362C64.7465 13.5266 64.8546 13.9471 65.0698 14.2977C65.3311 14.7216 65.6947 14.9335 66.1642 14.9335C66.6246 14.9335 66.9859 14.7182 67.246 14.2864C67.4693 13.9291 67.5809 13.5052 67.5809 13.0148Z" fill="black"/>
<path d="M77.8727 10.3634L76.1752 15.6776H75.0705L74.3673 13.37C74.1889 12.7939 74.0439 12.2212 73.9312 11.6531H73.9093C73.8046 12.237 73.6596 12.8086 73.4731 13.37L72.7263 15.6776H71.6089L70.0127 10.3634H71.2521L71.8655 12.8897C72.0139 13.4872 72.1359 14.0565 72.2337 14.5954H72.2556C72.3454 14.1512 72.4938 13.5853 72.7033 12.901L73.4731 10.3645H74.4559L75.1936 12.8469C75.372 13.4523 75.517 14.0351 75.6286 14.5965H75.662C75.7437 14.0497 75.8668 13.4669 76.0302 12.8469L76.6885 10.3645H77.8727V10.3634Z" fill="black"/>
<path d="M84.1242 15.6778H82.9182V12.634C82.9182 11.6961 82.5545 11.2271 81.8249 11.2271C81.467 11.2271 81.1782 11.3556 80.9538 11.6138C80.7317 11.8719 80.6189 12.1763 80.6189 12.5246V15.6766H79.4129V11.8821C79.4129 11.4153 79.3979 10.9092 79.3691 10.3613H80.429L80.4854 11.1921H80.5188C80.6592 10.934 80.8686 10.7209 81.1437 10.5507C81.4705 10.3523 81.8364 10.252 82.2369 10.252C82.7433 10.252 83.1645 10.412 83.4994 10.7333C83.9159 11.1268 84.1242 11.7141 84.1242 12.4942V15.6778Z" fill="black"/>
<path d="M87.45 15.6776H86.2451V7.92505H87.45V15.6776Z" fill="black"/>
<path d="M94.5506 12.9765C94.5506 13.7938 94.3123 14.4634 93.8359 14.9887C93.3365 15.5287 92.6736 15.7982 91.8485 15.7982C91.051 15.7982 90.4169 15.54 89.945 15.0214C89.4732 14.504 89.2373 13.8513 89.2373 13.0644C89.2373 12.2415 89.4801 11.5662 89.9681 11.042C90.456 10.5178 91.112 10.2551 91.9371 10.2551C92.7346 10.2551 93.3733 10.5133 93.8589 11.0307C94.3192 11.5335 94.5506 12.1828 94.5506 12.9765ZM93.2985 13.0148C93.2985 12.5244 93.1903 12.1039 92.9751 11.7533C92.7231 11.3295 92.3617 11.1175 91.8945 11.1175C91.4089 11.1175 91.0406 11.3295 90.7886 11.7533C90.5722 12.1039 90.4652 12.5312 90.4652 13.0362C90.4652 13.5266 90.5734 13.9471 90.7886 14.2977C91.0498 14.7216 91.4135 14.9335 91.883 14.9335C92.3433 14.9335 92.7035 14.7182 92.9636 14.2864C93.188 13.9291 93.2985 13.5052 93.2985 13.0148Z" fill="black"/>
<path d="M100.387 15.6775H99.3043L99.2145 15.0654H99.1811C98.8106 15.5535 98.2824 15.7982 97.5965 15.7982C97.0844 15.7982 96.6701 15.637 96.3582 15.3168C96.0751 15.0259 95.9336 14.6641 95.9336 14.2346C95.9336 13.5852 96.2098 13.0903 96.7656 12.7476C97.3203 12.4049 98.1006 12.237 99.1052 12.2448V12.1456C99.1052 11.4456 98.73 11.0961 97.9786 11.0961C97.4434 11.0961 96.9716 11.228 96.5642 11.4895L96.3191 10.7139C96.8232 10.4084 97.4457 10.2551 98.18 10.2551C99.5977 10.2551 100.309 10.9879 100.309 12.4534V14.4104C100.309 14.9414 100.335 15.3641 100.387 15.6775ZM99.1351 13.8513V13.0317C97.8048 13.0092 97.1396 13.3665 97.1396 14.1027C97.1396 14.38 97.2156 14.5874 97.3709 14.7261C97.5263 14.8647 97.7242 14.9335 97.9602 14.9335C98.2248 14.9335 98.4723 14.8512 98.6978 14.6878C98.9245 14.5232 99.0638 14.3146 99.1156 14.0587C99.1282 14.0012 99.1351 13.9313 99.1351 13.8513Z" fill="black"/>
<path d="M107.24 15.6776H106.17L106.113 14.8243H106.08C105.738 15.4736 105.156 15.7983 104.338 15.7983C103.684 15.7983 103.14 15.5469 102.708 15.0441C102.277 14.5413 102.062 13.8886 102.062 13.0871C102.062 12.2269 102.295 11.5302 102.765 10.9981C103.219 10.5021 103.776 10.2541 104.439 10.2541C105.168 10.2541 105.677 10.4942 105.967 10.9756H105.99V7.92505H107.198V14.2459C107.198 14.7634 107.211 15.2402 107.24 15.6776ZM105.99 13.4365V12.5504C105.99 12.3971 105.979 12.2731 105.957 12.1784C105.889 11.8943 105.743 11.6554 105.521 11.4626C105.296 11.2698 105.026 11.1729 104.714 11.1729C104.264 11.1729 103.912 11.3476 103.653 11.6982C103.396 12.0488 103.266 12.4963 103.266 13.0431C103.266 13.5684 103.39 13.9945 103.637 14.3226C103.898 14.6721 104.25 14.8468 104.691 14.8468C105.087 14.8468 105.403 14.7014 105.644 14.4094C105.876 14.14 105.99 13.8153 105.99 13.4365Z" fill="black"/>
<path d="M117.555 12.9765C117.555 13.7938 117.317 14.4634 116.841 14.9887C116.341 15.5287 115.681 15.7982 114.853 15.7982C114.058 15.7982 113.424 15.54 112.95 15.0214C112.478 14.504 112.242 13.8513 112.242 13.0644C112.242 12.2415 112.485 11.5662 112.973 11.042C113.461 10.5178 114.117 10.2551 114.944 10.2551C115.739 10.2551 116.38 10.5133 116.864 11.0307C117.324 11.5335 117.555 12.1828 117.555 12.9765ZM116.306 13.0148C116.306 12.5244 116.197 12.1039 115.982 11.7533C115.728 11.3295 115.369 11.1175 114.899 11.1175C114.416 11.1175 114.048 11.3295 113.793 11.7533C113.577 12.1039 113.47 12.5312 113.47 13.0362C113.47 13.5266 113.578 13.9471 113.793 14.2977C114.055 14.7216 114.418 14.9335 114.888 14.9335C115.348 14.9335 115.711 14.7182 115.971 14.2864C116.193 13.9291 116.306 13.5052 116.306 13.0148Z" fill="black"/>
<path d="M124.04 15.6778H122.835V12.634C122.835 11.6961 122.472 11.2271 121.741 11.2271C121.383 11.2271 121.094 11.3556 120.871 11.6138C120.648 11.8719 120.536 12.1763 120.536 12.5246V15.6766H119.329V11.8821C119.329 11.4153 119.315 10.9092 119.286 10.3613H120.345L120.401 11.1921H120.435C120.576 10.934 120.786 10.7209 121.06 10.5507C121.387 10.3523 121.752 10.252 122.154 10.252C122.659 10.252 123.08 10.412 123.415 10.7333C123.833 11.1268 124.04 11.7141 124.04 12.4942V15.6778Z" fill="black"/>
<path d="M132.156 11.2482H130.828V13.8298C130.828 14.4859 131.064 14.8139 131.532 14.8139C131.748 14.8139 131.927 14.7959 132.069 14.7587L132.1 15.6549C131.862 15.7428 131.549 15.7868 131.163 15.7868C130.687 15.7868 130.316 15.6448 130.048 15.3607C129.779 15.0766 129.645 14.5986 129.645 13.9279V11.2482H128.853V10.3633H129.645V9.38926L130.827 9.03979V10.3621H132.155V11.2482H132.156Z" fill="black"/>
<path d="M138.541 15.6776H137.334V12.6564C137.334 11.7038 136.971 11.227 136.242 11.227C135.683 11.227 135.301 11.5032 135.091 12.0556C135.056 12.1717 135.035 12.3137 135.035 12.4806V15.6765H133.83V7.92505H135.035V11.1278H135.058C135.438 10.5449 135.982 10.2541 136.688 10.2541C137.187 10.2541 137.6 10.4142 137.928 10.7355C138.337 11.1357 138.541 11.7309 138.541 12.5178V15.6776Z" fill="black"/>
<path d="M145.128 12.7691C145.128 12.981 145.112 13.1591 145.083 13.3045H141.466C141.482 13.8299 141.655 14.2301 141.989 14.5074C142.296 14.7554 142.69 14.8794 143.174 14.8794C143.709 14.8794 144.197 14.796 144.636 14.628L144.825 15.4487C144.311 15.6674 143.705 15.7768 143.004 15.7768C142.164 15.7768 141.503 15.5344 141.024 15.0496C140.543 14.5649 140.305 13.9144 140.305 13.0982C140.305 12.2967 140.527 11.6293 140.974 11.0972C141.442 10.5291 142.073 10.245 142.871 10.245C143.651 10.245 144.244 10.5291 144.644 11.0972C144.968 11.5482 145.128 12.1062 145.128 12.7691ZM143.977 12.4636C143.986 12.113 143.907 11.8108 143.743 11.5561C143.534 11.228 143.215 11.0634 142.784 11.0634C142.39 11.0634 142.069 11.2235 141.824 11.5448C141.624 11.8007 141.505 12.1062 141.466 12.4636H143.977Z" fill="black"/>
<path d="M67.3775 36.0494H64.764L63.3324 31.6427H58.3564L56.9927 36.0494H54.4482L59.3783 21.047H62.4233L67.3775 36.0494ZM62.9009 29.7939L61.6062 25.8764C61.4693 25.4762 61.2126 24.5338 60.834 23.0502H60.788C60.6372 23.6883 60.3944 24.6308 60.0607 25.8764L58.7891 29.7939H62.9009Z" fill="black"/>
<path d="M80.0554 30.5075C80.0554 32.3473 79.5479 33.8015 78.5329 34.8691C77.6238 35.8194 76.4949 36.294 75.1473 36.294C73.6927 36.294 72.6477 35.7822 72.0113 34.7586H71.9653V40.4572H69.5118V28.7928C69.5118 27.6362 69.4807 26.4491 69.4209 25.2316H71.5786L71.7156 26.9463H71.7616C72.5798 25.6543 73.8216 25.0095 75.4879 25.0095C76.7906 25.0095 77.8781 25.5134 78.7481 26.5224C79.6204 27.5325 80.0554 28.8604 80.0554 30.5075ZM77.5559 30.5954C77.5559 29.5425 77.3142 28.6744 76.8286 27.9913C76.2981 27.2788 75.5857 26.9226 74.6927 26.9226C74.0874 26.9226 73.5373 27.121 73.0459 27.5122C72.5534 27.9067 72.2311 28.4219 72.0804 29.06C72.0044 29.3576 71.9665 29.6011 71.9665 29.7927V31.5965C71.9665 32.3833 72.2127 33.0473 72.7053 33.5896C73.1978 34.1318 73.8377 34.4024 74.6248 34.4024C75.5489 34.4024 76.2682 34.0529 76.7826 33.3562C77.2981 32.6584 77.5559 31.7385 77.5559 30.5954Z" fill="black"/>
<path d="M92.7574 30.5075C92.7574 32.3473 92.2499 33.8015 91.2338 34.8691C90.3258 35.8194 89.1968 36.294 87.8493 36.294C86.3946 36.294 85.3497 35.7822 84.7145 34.7586H84.6684V40.4572H82.2149V28.7928C82.2149 27.6362 82.1839 26.4491 82.124 25.2316H84.2818L84.4187 26.9463H84.4647C85.2818 25.6543 86.5235 25.0095 88.191 25.0095C89.4926 25.0095 90.5801 25.5134 91.4524 26.5224C92.3213 27.5325 92.7574 28.8604 92.7574 30.5075ZM90.2579 30.5954C90.2579 29.5425 90.0151 28.6744 89.5294 27.9913C88.9989 27.2788 88.2889 26.9226 87.3947 26.9226C86.7882 26.9226 86.2393 27.121 85.7467 27.5122C85.2542 27.9067 84.9331 28.4219 84.7824 29.06C84.7076 29.3576 84.6684 29.6011 84.6684 29.7927V31.5965C84.6684 32.3833 84.9147 33.0473 85.405 33.5896C85.8975 34.1307 86.5373 34.4024 87.3268 34.4024C88.2509 34.4024 88.9701 34.0529 89.4845 33.3562C90.0001 32.6584 90.2579 31.7385 90.2579 30.5954Z" fill="black"/>
<path d="M106.958 31.8421C106.958 33.1182 106.506 34.1565 105.598 34.958C104.6 35.8339 103.211 36.2713 101.426 36.2713C99.7782 36.2713 98.4571 35.9602 97.457 35.3368L98.0255 33.3335C99.1027 33.9716 100.285 34.2918 101.572 34.2918C102.496 34.2918 103.216 34.0866 103.732 33.6785C104.247 33.2704 104.503 32.7225 104.503 32.0394C104.503 31.4306 104.292 30.9177 103.867 30.5017C103.445 30.0857 102.739 29.699 101.754 29.3417C99.0728 28.362 97.7332 26.927 97.7332 25.0398C97.7332 23.8065 98.2028 22.7953 99.143 22.0085C100.08 21.2205 101.329 20.827 102.892 20.827C104.286 20.827 105.444 21.0649 106.368 21.5395L105.754 23.4988C104.891 23.0388 103.915 22.8089 102.823 22.8089C101.96 22.8089 101.286 23.0174 100.802 23.4323C100.394 23.8032 100.189 24.2552 100.189 24.7907C100.189 25.3837 100.423 25.874 100.892 26.2596C101.301 26.6158 102.043 27.0014 103.12 27.4173C104.438 27.937 105.406 28.5447 106.028 29.2414C106.648 29.9358 106.958 30.8049 106.958 31.8421Z" fill="black"/>
<path d="M115.07 27.0353H112.366V32.2875C112.366 33.6233 112.842 34.2907 113.797 34.2907C114.236 34.2907 114.599 34.2535 114.887 34.1791L114.955 36.0042C114.472 36.1812 113.835 36.2703 113.047 36.2703C112.078 36.2703 111.321 35.9806 110.774 35.4023C110.23 34.8228 109.956 33.8511 109.956 32.4859V27.033H108.345V25.2293H109.956V23.2486L112.366 22.5361V25.2293H115.07V27.0353Z" fill="black"/>
<path d="M127.272 30.5513C127.272 32.2141 126.787 33.5793 125.818 34.6468C124.802 35.746 123.453 36.2939 121.772 36.2939C120.151 36.2939 118.861 35.7674 117.899 34.7145C116.937 33.6616 116.456 32.3324 116.456 30.7305C116.456 29.0542 116.951 27.6811 117.944 26.6135C118.935 25.5448 120.272 25.0105 121.953 25.0105C123.574 25.0105 124.878 25.537 125.862 26.591C126.803 27.6135 127.272 28.9336 127.272 30.5513ZM124.727 30.6291C124.727 29.6314 124.509 28.7758 124.069 28.0622C123.554 27.1986 122.819 26.768 121.866 26.768C120.88 26.768 120.131 27.1998 119.616 28.0622C119.175 28.7769 118.958 29.646 118.958 30.6742C118.958 31.6718 119.175 32.5275 119.616 33.2399C120.147 34.1035 120.888 34.5341 121.844 34.5341C122.781 34.5341 123.516 34.0945 124.047 33.2174C124.499 32.4903 124.727 31.6256 124.727 30.6291Z" fill="black"/>
<path d="M135.248 27.3453C135.005 27.3014 134.746 27.2788 134.475 27.2788C133.612 27.2788 132.944 27.5978 132.475 28.237C132.066 28.8007 131.861 29.5132 131.861 30.3733V36.0494H129.409L129.432 28.6384C129.432 27.3916 129.401 26.2563 129.34 25.2327H131.477L131.567 27.3025H131.635C131.893 26.5912 132.302 26.0185 132.861 25.589C133.408 25.2023 133.998 25.0095 134.635 25.0095C134.861 25.0095 135.066 25.0253 135.248 25.0535V27.3453Z" fill="black"/>
<path d="M146.22 30.1285C146.22 30.5591 146.192 30.9221 146.131 31.2186H138.77C138.799 32.2873 139.154 33.1046 139.838 33.6683C140.458 34.1722 141.26 34.4247 142.245 34.4247C143.335 34.4247 144.33 34.2545 145.224 33.9129L145.608 35.5813C144.563 36.0277 143.329 36.2498 141.906 36.2498C140.194 36.2498 138.849 35.7561 137.871 34.7697C136.895 33.7832 136.406 32.4586 136.406 30.797C136.406 29.1657 136.861 27.8073 137.771 26.724C138.724 25.5673 140.012 24.989 141.632 24.989C143.224 24.989 144.428 25.5673 145.247 26.724C145.895 27.6427 146.22 28.7791 146.22 30.1285ZM143.881 29.5051C143.897 28.7926 143.737 28.1771 143.404 27.6574C142.98 26.9889 142.327 26.6552 141.449 26.6552C140.647 26.6552 139.994 26.981 139.496 27.6348C139.088 28.1545 138.845 28.7779 138.77 29.5039H143.881V29.5051Z" fill="black"/>
</svg>
