<svg width="242" height="70" viewBox="0 0 242 70" fill="none" xmlns="http://www.w3.org/2000/svg">
<path d="M240.656 61.9272C240.656 65.6576 237.575 68.6792 233.765 68.6792H8.24499C4.43628 68.6792 1.34473 65.6576 1.34473 61.9272V8.08162C1.34473 4.353 4.43628 1.32074 8.24499 1.32074H233.763C237.575 1.32074 240.654 4.353 240.654 8.08162L240.656 61.9272Z" fill="black"/>
<path d="M233.037 1.40218C237.187 1.40218 240.564 4.69875 240.564 8.75V61.25C240.564 65.3012 237.187 68.5978 233.037 68.5978H8.96296C4.81311 68.5978 1.43631 65.3012 1.43631 61.25V8.75C1.43631 4.69875 4.81311 1.40218 8.96296 1.40218H233.037ZM233.037 0H8.96296C4.03557 0 0 3.93969 0 8.75V61.25C0 66.0603 4.03557 70 8.96296 70H233.037C237.964 70 242 66.0603 242 61.25V8.75C242 3.93969 237.964 0 233.037 0Z" fill="#A6A6A6"/>
<path d="M54.0072 34.622C53.9552 28.9817 58.7379 26.2377 58.9566 26.11C56.248 22.2547 52.0497 21.728 50.5744 21.686C47.0484 21.3237 43.6281 23.7457 41.8319 23.7457C39.9999 23.7457 37.2339 21.721 34.2529 21.7805C30.4167 21.8382 26.8279 24.0065 24.8597 27.3735C20.7977 34.2387 23.8271 44.3275 27.7189 49.8767C29.6656 52.5945 31.9404 55.629 34.9179 55.5222C37.8309 55.405 38.919 53.7092 42.4342 53.7092C45.9173 53.7092 46.939 55.5222 49.9757 55.454C53.102 55.405 55.0702 52.724 56.9489 49.9817C59.1986 46.8667 60.102 43.799 60.1379 43.6415C60.0644 43.617 54.0664 41.3822 54.0072 34.622Z" fill="white"/>
<path d="M48.2709 18.0355C49.8377 16.1227 50.9096 13.5205 50.612 10.8797C48.3444 10.9777 45.5085 12.411 43.8755 14.2817C42.4307 15.9302 41.14 18.6322 41.4734 21.1732C44.0207 21.3587 46.6361 19.9185 48.2709 18.0355Z" fill="white"/>
<path d="M87.9264 17.5157C87.9264 19.5755 87.2936 21.126 86.0298 22.1673C84.8592 23.128 83.1957 23.6093 81.041 23.6093C79.9726 23.6093 79.0584 23.5638 78.293 23.4728V12.2185C79.2914 12.061 80.367 11.9805 81.5286 11.9805C83.5811 11.9805 85.1281 12.4162 86.1714 13.2877C87.3402 14.273 87.9264 15.6817 87.9264 17.5157ZM85.9456 17.5665C85.9456 16.2312 85.5835 15.2075 84.8592 14.4935C84.135 13.7812 83.0774 13.4242 81.6846 13.4242C81.093 13.4242 80.5893 13.4627 80.1716 13.5432V22.099C80.4029 22.134 80.8259 22.1498 81.4408 22.1498C82.8784 22.1498 83.988 21.7595 84.7696 20.979C85.5512 20.1985 85.9456 19.061 85.9456 17.5665Z" fill="white"/>
<path d="M98.4288 19.3147C98.4288 20.5835 98.0577 21.623 97.3156 22.4385C96.5376 23.2767 95.5068 23.695 94.2197 23.695C92.9793 23.695 91.9915 23.2942 91.2548 22.4892C90.5198 21.686 90.1523 20.6727 90.1523 19.4512C90.1523 18.1737 90.5306 17.1255 91.2906 16.3117C92.0507 15.498 93.0725 15.0902 94.3596 15.0902C95.6 15.0902 96.5967 15.491 97.3514 16.2942C98.0684 17.0747 98.4288 18.0827 98.4288 19.3147ZM96.4802 19.3742C96.4802 18.613 96.3117 17.9602 95.9765 17.416C95.5821 16.758 95.021 16.429 94.2914 16.429C93.5368 16.429 92.9631 16.758 92.5688 17.416C92.2318 17.9602 92.065 18.6235 92.065 19.4075C92.065 20.1687 92.2335 20.8215 92.5688 21.3657C92.9757 22.0237 93.5421 22.3527 94.2735 22.3527C94.9906 22.3527 95.5534 22.0185 95.9586 21.3482C96.3063 20.7935 96.4802 20.1355 96.4802 19.3742Z" fill="white"/>
<path d="M112.512 15.2582L109.868 23.5077H108.147L107.052 19.9255C106.774 19.0312 106.548 18.1422 106.372 17.2602H106.338C106.175 18.1667 105.949 19.054 105.659 19.9255L104.495 23.5077H102.755L100.269 15.2582H102.199L103.155 19.18C103.386 20.1075 103.576 20.9912 103.728 21.8277H103.762C103.902 21.1382 104.133 20.2597 104.46 19.1975L105.659 15.26H107.19L108.339 19.1135C108.617 20.0532 108.843 20.958 109.016 21.8295H109.068C109.196 20.9807 109.387 20.076 109.642 19.1135L110.667 15.26H112.512V15.2582Z" fill="white"/>
<path d="M122.251 23.5078H120.372V18.7828C120.372 17.3268 119.806 16.5988 118.669 16.5988C118.112 16.5988 117.662 16.7983 117.312 17.199C116.966 17.5998 116.79 18.0723 116.79 18.613V23.506H114.912V17.6155C114.912 16.891 114.889 16.1053 114.844 15.2548H116.495L116.583 16.5445H116.635C116.853 16.1438 117.179 15.813 117.608 15.5488C118.117 15.2408 118.687 15.085 119.311 15.085C120.1 15.085 120.756 15.3335 121.277 15.8323C121.926 16.443 122.251 17.3548 122.251 18.5658V23.5078Z" fill="white"/>
<path d="M127.432 23.5077H125.555V11.473H127.432V23.5077Z" fill="white"/>
<path d="M138.492 19.3147C138.492 20.5835 138.121 21.623 137.379 22.4385C136.601 23.2767 135.569 23.695 134.283 23.695C133.041 23.695 132.053 23.2942 131.318 22.4892C130.583 21.686 130.216 20.6727 130.216 19.4512C130.216 18.1737 130.594 17.1255 131.354 16.3117C132.114 15.498 133.136 15.0902 134.421 15.0902C135.664 15.0902 136.658 15.491 137.415 16.2942C138.132 17.0747 138.492 18.0827 138.492 19.3147ZM136.542 19.3742C136.542 18.613 136.373 17.9602 136.038 17.416C135.646 16.758 135.083 16.429 134.355 16.429C133.598 16.429 133.025 16.758 132.632 17.416C132.295 17.9602 132.129 18.6235 132.129 19.4075C132.129 20.1687 132.297 20.8215 132.632 21.3657C133.039 22.0237 133.606 22.3527 134.337 22.3527C135.054 22.3527 135.615 22.0185 136.02 21.3482C136.37 20.7935 136.542 20.1355 136.542 19.3742Z" fill="white"/>
<path d="M147.584 23.5077H145.897L145.757 22.5575H145.705C145.128 23.3152 144.305 23.695 143.237 23.695C142.439 23.695 141.794 23.4447 141.308 22.9477C140.867 22.4962 140.646 21.9345 140.646 21.2677C140.646 20.2597 141.077 19.4915 141.943 18.9595C142.807 18.4275 144.022 18.1667 145.587 18.179V18.025C145.587 16.9382 145.002 16.3957 143.832 16.3957C142.998 16.3957 142.263 16.6005 141.629 17.0065L141.247 15.8025C142.032 15.3282 143.002 15.0902 144.146 15.0902C146.354 15.0902 147.462 16.2277 147.462 18.5027V21.5407C147.462 22.365 147.503 23.0212 147.584 23.5077ZM145.633 20.6727V19.4005C143.561 19.3655 142.525 19.9202 142.525 21.063C142.525 21.4935 142.643 21.8155 142.885 22.0307C143.127 22.246 143.436 22.3527 143.803 22.3527C144.216 22.3527 144.601 22.225 144.952 21.9712C145.305 21.7157 145.522 21.392 145.603 20.9947C145.623 20.9055 145.633 20.797 145.633 20.6727Z" fill="white"/>
<path d="M158.259 23.5077H156.592L156.504 22.183H156.452C155.92 23.191 155.013 23.695 153.738 23.695C152.72 23.695 151.872 23.3047 151.2 22.5242C150.528 21.7437 150.192 20.7305 150.192 19.4862C150.192 18.151 150.556 17.0695 151.288 16.2435C151.996 15.4735 152.863 15.0885 153.896 15.0885C155.031 15.0885 155.825 15.4612 156.276 16.2085H156.312V11.473H158.193V21.2852C158.193 22.0885 158.214 22.8287 158.259 23.5077ZM156.312 20.0287V18.6532C156.312 18.4152 156.294 18.2227 156.26 18.0757C156.155 17.6347 155.927 17.2637 155.581 16.9645C155.231 16.6652 154.81 16.5147 154.324 16.5147C153.623 16.5147 153.075 16.786 152.672 17.3302C152.272 17.8745 152.069 18.5692 152.069 19.418C152.069 20.2335 152.261 20.895 152.646 21.4042C153.053 21.9467 153.602 22.218 154.288 22.218C154.905 22.218 155.398 21.9922 155.773 21.539C156.135 21.1207 156.312 20.6167 156.312 20.0287Z" fill="white"/>
<path d="M174.326 19.3147C174.326 20.5835 173.955 21.623 173.213 22.4385C172.435 23.2767 171.406 23.695 170.117 23.695C168.879 23.695 167.891 23.2942 167.152 22.4892C166.417 21.686 166.05 20.6727 166.05 19.4512C166.05 18.1737 166.428 17.1255 167.188 16.3117C167.948 15.498 168.97 15.0902 170.259 15.0902C171.497 15.0902 172.496 15.491 173.249 16.2942C173.966 17.0747 174.326 18.0827 174.326 19.3147ZM172.379 19.3742C172.379 18.613 172.211 17.9602 171.876 17.416C171.48 16.758 170.92 16.429 170.189 16.429C169.436 16.429 168.862 16.758 168.466 17.416C168.129 17.9602 167.963 18.6235 167.963 19.4075C167.963 20.1687 168.131 20.8215 168.466 21.3657C168.873 22.0237 169.44 22.3527 170.171 22.3527C170.888 22.3527 171.453 22.0185 171.858 21.3482C172.204 20.7935 172.379 20.1355 172.379 19.3742Z" fill="white"/>
<path d="M184.427 23.5078H182.55V18.7828C182.55 17.3268 181.983 16.5988 180.845 16.5988C180.288 16.5988 179.838 16.7983 179.49 17.199C179.142 17.5998 178.968 18.0723 178.968 18.613V23.506H177.088V17.6155C177.088 16.891 177.066 16.1053 177.021 15.2548H178.671L178.759 16.5445H178.81C179.031 16.1438 179.357 15.813 179.784 15.5488C180.295 15.2408 180.863 15.085 181.489 15.085C182.276 15.085 182.932 15.3335 183.453 15.8323C184.104 16.443 184.427 17.3548 184.427 18.5658V23.5078Z" fill="white"/>
<path d="M197.07 16.632H195.002V20.6395C195.002 21.658 195.369 22.1673 196.097 22.1673C196.434 22.1673 196.714 22.1393 196.934 22.0815L196.983 23.4728C196.611 23.6093 196.124 23.6775 195.523 23.6775C194.781 23.6775 194.204 23.457 193.786 23.016C193.367 22.575 193.159 21.833 193.159 20.7918V16.632H191.924V15.2583H193.159V13.7463L195 13.2038V15.2565H197.069V16.632H197.07Z" fill="white"/>
<path d="M207.016 23.5077H205.135V18.8177C205.135 17.339 204.569 16.5987 203.434 16.5987C202.563 16.5987 201.968 17.0275 201.641 17.885C201.586 18.0652 201.554 18.2857 201.554 18.5447V23.506H199.677V11.473H201.554V16.4447H201.589C202.181 15.54 203.029 15.0885 204.128 15.0885C204.906 15.0885 205.549 15.337 206.06 15.8357C206.697 16.457 207.016 17.381 207.016 18.6025V23.5077Z" fill="white"/>
<path d="M217.274 18.9927C217.274 19.3217 217.249 19.5982 217.205 19.824H211.57C211.596 20.6395 211.864 21.2607 212.386 21.6912C212.863 22.0762 213.478 22.2687 214.231 22.2687C215.064 22.2687 215.824 22.1392 216.509 21.8785L216.803 23.1525C216.002 23.492 215.059 23.6617 213.967 23.6617C212.659 23.6617 211.628 23.2855 210.882 22.533C210.133 21.7805 209.762 20.7707 209.762 19.5037C209.762 18.2595 210.108 17.2235 210.805 16.3975C211.533 15.5155 212.517 15.0745 213.759 15.0745C214.975 15.0745 215.898 15.5155 216.522 16.3975C217.025 17.0975 217.274 17.9637 217.274 18.9927ZM215.482 18.5185C215.496 17.9742 215.373 17.5052 215.118 17.1097C214.792 16.6005 214.295 16.345 213.623 16.345C213.01 16.345 212.51 16.5935 212.128 17.0922C211.816 17.4895 211.631 17.9637 211.57 18.5185H215.482Z" fill="white"/>
<path d="M96.1632 55.132H92.0922L89.8623 48.2912H82.1111L79.9869 55.132H76.0234L83.7029 31.843H88.4461L96.1632 55.132ZM89.19 45.4212L87.1734 39.34C86.96 38.7187 86.5603 37.2557 85.9705 34.9527H85.8988C85.664 35.9432 85.2858 37.4062 84.7659 39.34L82.7851 45.4212H89.19Z" fill="white"/>
<path d="M115.912 46.529C115.912 49.385 115.121 51.6425 113.54 53.2998C112.124 54.775 110.366 55.5118 108.267 55.5118C106.001 55.5118 104.373 54.7173 103.382 53.1283H103.31V61.9745H99.4883V43.8673C99.4883 42.0718 99.4399 40.229 99.3467 38.339H102.708L102.921 41.0008H102.993C104.267 38.9953 106.202 37.9943 108.797 37.9943C110.826 37.9943 112.52 38.7765 113.876 40.3428C115.234 41.9108 115.912 43.9723 115.912 46.529ZM112.019 46.6655C112.019 45.031 111.642 43.6835 110.886 42.623C110.059 41.517 108.95 40.964 107.559 40.964C106.616 40.964 105.759 41.272 104.993 41.8793C104.226 42.4918 103.724 43.2915 103.489 44.282C103.371 44.744 103.312 45.122 103.312 45.4195V48.2195C103.312 49.441 103.696 50.4718 104.463 51.3135C105.23 52.1553 106.227 52.5753 107.453 52.5753C108.892 52.5753 110.013 52.0328 110.814 50.9513C111.617 49.868 112.019 48.44 112.019 46.6655Z" fill="white"/>
<path d="M135.697 46.529C135.697 49.385 134.907 51.6425 133.324 53.2998C131.91 54.775 130.151 55.5118 128.052 55.5118C125.786 55.5118 124.158 54.7173 123.169 53.1283H123.097V61.9745H119.275V43.8673C119.275 42.0718 119.227 40.229 119.134 38.339H122.495L122.708 41.0008H122.78C124.053 38.9953 125.987 37.9943 128.584 37.9943C130.612 37.9943 132.306 38.7765 133.665 40.3428C135.018 41.9108 135.697 43.9723 135.697 46.529ZM131.804 46.6655C131.804 45.031 131.426 43.6835 130.669 42.623C129.843 41.517 128.737 40.964 127.344 40.964C126.399 40.964 125.544 41.272 124.777 41.8793C124.01 42.4918 123.51 43.2915 123.275 44.282C123.158 44.744 123.097 45.122 123.097 45.4195V48.2195C123.097 49.441 123.481 50.4718 124.244 51.3135C125.012 52.1535 126.008 52.5753 127.238 52.5753C128.678 52.5753 129.798 52.0328 130.599 50.9513C131.402 49.868 131.804 48.44 131.804 46.6655Z" fill="white"/>
<path d="M157.817 48.601C157.817 50.582 157.113 52.1937 155.698 53.438C154.144 54.7977 151.981 55.4767 149.2 55.4767C146.633 55.4767 144.575 54.9937 143.018 54.026L143.903 50.9162C145.581 51.9067 147.422 52.4037 149.428 52.4037C150.867 52.4037 151.988 52.0852 152.793 51.4517C153.594 50.8182 153.994 49.9677 153.994 48.9072C153.994 47.9622 153.664 47.166 153.002 46.5202C152.344 45.8745 151.246 45.2742 149.711 44.7195C145.534 43.1987 143.448 40.971 143.448 38.0415C143.448 36.127 144.179 34.5572 145.644 33.3357C147.103 32.1125 149.05 31.5017 151.484 31.5017C153.655 31.5017 155.458 31.871 156.898 32.6077L155.942 35.6492C154.598 34.9352 153.078 34.5782 151.376 34.5782C150.032 34.5782 148.982 34.902 148.229 35.546C147.592 36.1217 147.273 36.8235 147.273 37.6547C147.273 38.5752 147.637 39.3365 148.368 39.935C149.005 40.488 150.161 41.0865 151.839 41.7322C153.891 42.539 155.399 43.4822 156.369 44.5637C157.335 45.6417 157.817 46.991 157.817 48.601Z" fill="white"/>
<path d="M170.453 41.139H166.241V49.2922C166.241 51.366 166.983 52.402 168.471 52.402C169.154 52.402 169.72 52.3442 170.168 52.2287L170.274 55.062C169.521 55.3367 168.53 55.475 167.302 55.475C165.793 55.475 164.613 55.0252 163.762 54.1275C162.914 53.228 162.487 51.7195 162.487 49.6002V41.1355H159.978V38.3355H162.487V35.2607L166.241 34.1547V38.3355H170.453V41.139Z" fill="white"/>
<path d="M189.461 46.5972C189.461 49.1785 188.704 51.2977 187.195 52.955C185.612 54.6612 183.511 55.5117 180.892 55.5117C178.368 55.5117 176.359 54.6945 174.86 53.06C173.362 51.4255 172.612 49.3622 172.612 46.8755C172.612 44.2732 173.383 42.1417 174.93 40.4845C176.474 38.8255 178.557 37.996 181.176 37.996C183.699 37.996 185.73 38.8132 187.263 40.4495C188.729 42.0367 189.461 44.086 189.461 46.5972ZM185.496 46.718C185.496 45.1692 185.157 43.841 184.47 42.7332C183.669 41.3927 182.524 40.7242 181.039 40.7242C179.503 40.7242 178.336 41.3945 177.535 42.7332C176.848 43.8427 176.509 45.192 176.509 46.788C176.509 48.3367 176.848 49.665 177.535 50.771C178.361 52.1115 179.516 52.78 181.005 52.78C182.464 52.78 183.61 52.0975 184.436 50.736C185.141 49.6072 185.496 48.265 185.496 46.718Z" fill="white"/>
<path d="M201.883 41.6203C201.505 41.552 201.101 41.517 200.678 41.517C199.334 41.517 198.294 42.0123 197.563 43.0045C196.926 43.8795 196.607 44.9855 196.607 46.3208V55.132H192.787L192.823 43.6275C192.823 41.692 192.775 39.9298 192.68 38.3408H196.009L196.148 41.5538H196.254C196.657 40.4495 197.294 39.5605 198.165 38.8938C199.017 38.2935 199.936 37.9943 200.927 37.9943C201.281 37.9943 201.6 38.0188 201.883 38.0625V41.6203Z" fill="white"/>
<path d="M218.976 45.941C218.976 46.6095 218.931 47.173 218.836 47.6332H207.37C207.415 49.2922 207.969 50.561 209.034 51.436C210 52.2182 211.25 52.6102 212.784 52.6102C214.482 52.6102 216.03 52.346 217.423 51.8157L218.022 54.4057C216.394 55.0987 214.473 55.4435 212.255 55.4435C209.588 55.4435 207.494 54.677 205.97 53.1457C204.45 51.6145 203.688 49.5582 203.688 46.9787C203.688 44.4465 204.397 42.3377 205.814 40.656C207.299 38.8605 209.305 37.9627 211.829 37.9627C214.308 37.9627 216.185 38.8605 217.459 40.656C218.468 42.0822 218.976 43.8462 218.976 45.941ZM215.331 44.9732C215.356 43.8672 215.107 42.9117 214.589 42.105C213.928 41.0672 212.911 40.5492 211.544 40.5492C210.294 40.5492 209.278 41.055 208.502 42.07C207.865 42.8767 207.487 43.8445 207.37 44.9715H215.331V44.9732Z" fill="white"/>
</svg>
