<svg width="242" height="70" viewBox="0 0 242 70" fill="none" xmlns="http://www.w3.org/2000/svg">
<path d="M233.037 70H8.96296C4.03557 70 0 66.0603 0 61.25V8.75C0 3.93969 4.03557 4.76837e-06 8.96296 4.76837e-06H233.037C237.964 4.76837e-06 242 3.93969 242 8.75V61.25C242 66.0603 237.964 70 233.037 70Z" fill="black"/>
<path d="M233.037 1.40219C237.187 1.40219 240.564 4.69875 240.564 8.75V61.25C240.564 65.3013 237.187 68.5978 233.037 68.5978H8.96296C4.81311 68.5978 1.43631 65.3013 1.43631 61.25V8.75C1.43631 4.69875 4.81311 1.40219 8.96296 1.40219H233.037ZM233.037 4.76837e-06H8.96296C4.03557 4.76837e-06 0 3.93969 0 8.75V61.25C0 66.0603 4.03557 70 8.96296 70H233.037C237.964 70 242 66.0603 242 61.25V8.75C242 3.93969 237.964 4.76837e-06 233.037 4.76837e-06Z" fill="#A6A6A6"/>
<path d="M17.3616 13.1928C16.835 13.7309 16.5303 14.5687 16.5303 15.6537V54.355C16.5303 55.44 16.835 56.2778 17.3616 56.8159L17.4916 56.9341L39.7062 35.2559V34.7441L17.4916 13.0659L17.3616 13.1928Z" fill="white"/>
<path d="M49.7922 42.4856L42.3955 35.2559V34.744L49.8012 27.5143L49.967 27.6084L58.7372 32.48C61.2401 33.8625 61.2401 36.1375 58.7372 37.5287L49.967 42.3915L49.7922 42.4856V42.4856Z" fill="white"/>
<path d="M48.6222 43.7377L41.0507 36.3462L18.7061 58.1621C19.5374 59.0152 20.893 59.118 22.4346 58.2649L48.6222 43.7377" fill="white"/>
<path d="M48.6222 26.2623L22.4346 11.7351C20.893 10.8907 19.5374 10.9935 18.7061 11.8467L41.0507 33.6538L48.6222 26.2623Z" fill="white"/>
<path d="M85 17.9265C85 19.3878 84.5519 20.5581 83.669 21.4309C82.654 22.4656 81.3319 22.9862 79.7119 22.9862C78.1635 22.9862 76.8415 22.4569 75.7569 21.4134C74.6702 20.3547 74.1279 19.0553 74.1279 17.5C74.1279 15.9447 74.6702 14.6453 75.7569 13.5953C76.8415 12.5431 78.1635 12.0137 79.7119 12.0137C80.4827 12.0137 81.2176 12.169 81.919 12.4578C82.6181 12.7487 83.1872 13.1425 83.5995 13.6281L82.6629 14.5512C81.9436 13.7222 80.9644 13.3131 79.7119 13.3131C78.5825 13.3131 77.6033 13.6981 76.772 14.4747C75.9497 15.2534 75.5374 16.2619 75.5374 17.5C75.5374 18.7381 75.9497 19.7553 76.772 20.534C77.6033 21.3019 78.5825 21.6956 79.7119 21.6956C80.9107 21.6956 81.919 21.3019 82.7145 20.5253C83.2388 20.0112 83.5368 19.3025 83.6152 18.3969H79.7119V17.1325H84.9193C84.9821 17.4059 85 17.6706 85 17.9265V17.9265Z" fill="white" stroke="white" stroke-width="0.16" stroke-miterlimit="10"/>
<path d="M93.2617 13.5428H88.3701V16.8678H92.7799V18.1322H88.3701V21.4572H93.2617V22.7456H86.9854V12.2544H93.2617V13.5428Z" fill="white" stroke="white" stroke-width="0.16" stroke-miterlimit="10"/>
<path d="M99.0922 22.7456H97.7074V13.5428H94.707V12.2544H102.095V13.5428H99.0922V22.7456V22.7456Z" fill="white" stroke="white" stroke-width="0.16" stroke-miterlimit="10"/>
<path d="M107.441 22.7456V12.2544H108.824V22.7456H107.441Z" fill="white" stroke="white" stroke-width="0.16" stroke-miterlimit="10"/>
<path d="M114.952 22.7456H113.578V13.5428H110.566V12.2544H117.963V13.5428H114.952V22.7456Z" fill="white" stroke="white" stroke-width="0.16" stroke-miterlimit="10"/>
<path d="M131.95 21.3959C130.89 22.4569 129.577 22.9862 128.011 22.9862C126.436 22.9862 125.123 22.4569 124.063 21.3959C123.005 20.3372 122.479 19.0378 122.479 17.5C122.479 15.9622 123.005 14.6628 124.063 13.604C125.123 12.5431 126.436 12.0137 128.011 12.0137C129.568 12.0137 130.881 12.5431 131.941 13.6128C133.008 14.6803 133.534 15.9709 133.534 17.5C133.534 19.0378 133.008 20.3372 131.95 21.3959ZM125.087 20.5165C125.884 21.3019 126.855 21.6956 128.011 21.6956C129.158 21.6956 130.137 21.3019 130.926 20.5165C131.722 19.7312 132.125 18.7228 132.125 17.5C132.125 16.2772 131.722 15.2687 130.926 14.4834C130.137 13.6981 129.158 13.3044 128.011 13.3044C126.855 13.3044 125.884 13.6981 125.087 14.4834C124.291 15.2687 123.888 16.2772 123.888 17.5C123.888 18.7228 124.291 19.7312 125.087 20.5165V20.5165Z" fill="white" stroke="white" stroke-width="0.16" stroke-miterlimit="10"/>
<path d="M135.478 22.7456V12.2544H137.158L142.384 20.4137H142.444L142.384 18.3969V12.2544H143.766V22.7456H142.323L136.851 14.1837H136.791L136.851 16.2094V22.7456H135.478V22.7456Z" fill="white" stroke="white" stroke-width="0.16" stroke-miterlimit="10"/>
<path d="M122.139 38.0669C117.928 38.0669 114.489 41.195 114.489 45.511C114.489 49.7919 117.928 52.9528 122.139 52.9528C126.358 52.9528 129.797 49.7919 129.797 45.511C129.797 41.195 126.358 38.0669 122.139 38.0669ZM122.139 50.0216C119.828 50.0216 117.841 48.16 117.841 45.511C117.841 42.8269 119.828 40.9982 122.139 40.9982C124.449 40.9982 126.445 42.8269 126.445 45.511C126.445 48.16 124.449 50.0216 122.139 50.0216V50.0216ZM105.447 38.0669C101.228 38.0669 97.7975 41.195 97.7975 45.511C97.7975 49.7919 101.228 52.9528 105.447 52.9528C109.664 52.9528 113.097 49.7919 113.097 45.511C113.097 41.195 109.664 38.0669 105.447 38.0669ZM105.447 50.0216C103.135 50.0216 101.141 48.16 101.141 45.511C101.141 42.8269 103.135 40.9982 105.447 40.9982C107.758 40.9982 109.745 42.8269 109.745 45.511C109.745 48.16 107.758 50.0216 105.447 50.0216ZM85.5854 40.3485V43.5116H93.3227C93.0964 45.2791 92.4914 46.5785 91.5637 47.4841C90.4344 48.5778 88.6754 49.7919 85.5854 49.7919C80.8239 49.7919 77.0953 46.0403 77.0953 41.3919C77.0953 36.7435 80.8239 32.9919 85.5854 32.9919C88.1601 32.9919 90.0333 33.9741 91.4159 35.2472L93.6992 33.0182C91.7654 31.2157 89.193 29.831 85.5854 29.831C79.0559 29.831 73.5684 35.0175 73.5684 41.3919C73.5684 47.7663 79.0559 52.9528 85.5854 52.9528C89.1146 52.9528 91.7654 51.8241 93.8493 49.7066C95.9847 47.6219 96.6502 44.6907 96.6502 42.3238C96.6502 41.5888 96.5875 40.9128 96.4754 40.3485H85.5854ZM166.803 42.8007C166.174 41.136 164.231 38.0669 160.274 38.0669C156.353 38.0669 153.088 41.0835 153.088 45.511C153.088 49.6803 156.319 52.9528 160.65 52.9528C164.153 52.9528 166.174 50.8682 167.005 49.6541L164.406 47.9632C163.539 49.2013 162.358 50.0216 160.65 50.0216C158.954 50.0216 157.737 49.2625 156.957 47.7663L167.155 43.6472L166.803 42.8007V42.8007ZM156.406 45.2791C156.319 42.4091 158.69 40.9391 160.388 40.9391C161.719 40.9391 162.848 41.5888 163.225 42.5185L156.406 45.2791V45.2791ZM148.118 52.5H151.47V30.625H148.118V52.5ZM142.628 39.725H142.516C141.763 38.8544 140.327 38.0669 138.507 38.0669C134.689 38.0669 131.198 41.3394 131.198 45.535C131.198 49.7066 134.689 52.9528 138.507 52.9528C140.327 52.9528 141.763 52.1588 142.516 51.2619H142.628V52.3294C142.628 55.1753 141.071 56.7044 138.559 56.7044C136.511 56.7044 135.24 55.2607 134.716 54.0466L131.801 55.2344C132.641 57.2075 134.866 59.6357 138.559 59.6357C142.489 59.6357 145.805 57.3782 145.805 51.8853V38.5197H142.628V39.725V39.725ZM138.794 50.0216C136.484 50.0216 134.55 48.1338 134.55 45.535C134.55 42.9122 136.484 40.9982 138.794 40.9982C141.071 40.9982 142.865 42.9122 142.865 45.535C142.865 48.1338 141.071 50.0216 138.794 50.0216V50.0216ZM182.497 30.625H174.48V52.5H177.823V44.2116H182.497C186.21 44.2116 189.852 41.5888 189.852 37.4172C189.852 33.2478 186.201 30.625 182.497 30.625V30.625ZM182.585 41.1688H177.823V33.6678H182.585C185.081 33.6678 186.506 35.6913 186.506 37.4172C186.506 39.1103 185.081 41.1688 182.585 41.1688ZM203.251 38.0253C200.836 38.0253 198.324 39.0666 197.291 41.3744L200.258 42.5885C200.896 41.3744 202.07 40.9807 203.312 40.9807C205.046 40.9807 206.805 41.9978 206.832 43.7938V44.0235C206.227 43.6822 204.932 43.1769 203.339 43.1769C200.143 43.1769 196.887 44.8941 196.887 48.0988C196.887 51.03 199.505 52.9178 202.447 52.9178C204.696 52.9178 205.938 51.9269 206.718 50.7741H206.832V52.465H210.061V44.0738C210.061 40.1953 207.094 38.0253 203.251 38.0253ZM202.848 50.0128C201.754 50.0128 200.231 49.4835 200.231 48.16C200.231 46.4669 202.131 45.8172 203.776 45.8172C205.248 45.8172 205.938 46.1344 206.832 46.5522C206.57 48.5778 204.784 50.0128 202.848 50.0128V50.0128ZM221.825 38.5044L217.982 47.9872H217.868L213.895 38.5044H210.289L216.259 51.7563L212.853 59.1303H216.346L225.544 38.5044H221.825V38.5044ZM191.689 52.5H195.041V30.625H191.689V52.5Z" fill="white"/>
</svg>
