<svg width="166" height="48" viewBox="0 0 166 48" fill="none" xmlns="http://www.w3.org/2000/svg">
<path d="M159.397 48H6.13067C2.76033 48 0 45.2985 0 42V6C0 2.7015 2.76033 2.86102e-06 6.13067 2.86102e-06H159.397C162.768 2.86102e-06 165.528 2.7015 165.528 6V42C165.528 45.2985 162.768 48 159.397 48Z" fill="white"/>
<path d="M12.8719 8.9284C12.517 9.29372 12.3115 9.86249 12.3115 10.5991V36.8722C12.3115 37.6088 12.517 38.1775 12.8719 38.5429L12.9596 38.623L27.9353 23.9064V23.5589L12.9596 8.84227L12.8719 8.9284Z" fill="black"/>
<path d="M34.7344 28.8145L29.748 23.9064V23.5589L34.7405 18.6509L34.8522 18.7148L40.7646 22.0219C42.4519 22.9605 42.4519 24.5049 40.7646 25.4494L34.8522 28.7506L34.7344 28.8145Z" fill="black"/>
<path d="M33.9459 29.6645L28.8417 24.6466L13.7783 39.4568C14.3387 40.0359 15.2526 40.1057 16.2919 39.5266L33.9459 29.6645Z" fill="black"/>
<path d="M33.9459 17.8008L16.2919 7.93874C15.2526 7.36552 14.3387 7.43531 13.7783 8.01447L28.8417 22.8187L33.9459 17.8008Z" fill="black"/>
<path d="M58.4699 12.1422C58.4699 13.1342 58.1678 13.9287 57.5726 14.5212C56.8883 15.2236 55.9971 15.5771 54.905 15.5771C53.8612 15.5771 52.9699 15.2177 52.2388 14.5093C51.5062 13.7906 51.1406 12.9085 51.1406 11.8526C51.1406 10.7968 51.5062 9.91466 52.2388 9.20185C52.9699 8.48755 53.8612 8.12817 54.905 8.12817C55.4246 8.12817 55.9201 8.23361 56.3929 8.42963C56.8642 8.62714 57.2478 8.89445 57.5258 9.22413L56.8944 9.85081C56.4095 9.28798 55.7494 9.01028 54.905 9.01028C54.1436 9.01028 53.4835 9.27165 52.9231 9.79883C52.3687 10.3275 52.0908 11.0121 52.0908 11.8526C52.0908 12.6932 52.3687 13.3837 52.9231 13.9124C53.4835 14.4336 54.1436 14.7009 54.905 14.7009C55.7131 14.7009 56.3929 14.4336 56.9291 13.9064C57.2826 13.5574 57.4835 13.0763 57.5364 12.4615H54.905V11.6031H58.4155C58.4578 11.7888 58.4699 11.9685 58.4699 12.1422Z" fill="black" stroke="black" stroke-width="0.16" stroke-miterlimit="10"/>
<path d="M64.0397 9.16606H60.7421V11.4233H63.7149V12.2817H60.7421V14.5389H64.0397V15.4136H59.8086V8.29138H64.0397V9.16606Z" fill="black" stroke="black" stroke-width="0.16" stroke-miterlimit="10"/>
<path d="M67.9698 15.4136H67.0363V9.16606H65.0137V8.29138H69.994V9.16606H67.9698V15.4136Z" fill="black" stroke="black" stroke-width="0.16" stroke-miterlimit="10"/>
<path d="M73.5977 15.4136V8.29138H74.5297V15.4136H73.5977Z" fill="black" stroke="black" stroke-width="0.16" stroke-miterlimit="10"/>
<path d="M78.6612 15.4136H77.7353V9.16606H75.7051V8.29138H80.6914V9.16606H78.6612V15.4136Z" fill="black" stroke="black" stroke-width="0.16" stroke-miterlimit="10"/>
<path d="M90.1205 14.4975C89.406 15.2177 88.5208 15.5771 87.4649 15.5771C86.403 15.5771 85.5178 15.2177 84.8033 14.4975C84.0903 13.7787 83.7354 12.8966 83.7354 11.8526C83.7354 10.8087 84.0903 9.92654 84.8033 9.20779C85.5178 8.48755 86.403 8.12817 87.4649 8.12817C88.5148 8.12817 89.4 8.48755 90.1145 9.21373C90.8335 9.93842 91.1885 10.8146 91.1885 11.8526C91.1885 12.8966 90.8335 13.7787 90.1205 14.4975ZM85.4937 13.9005C86.0314 14.4336 86.6855 14.7009 87.4649 14.7009C88.2383 14.7009 88.8985 14.4336 89.4302 13.9005C89.9664 13.3674 90.2383 12.6828 90.2383 11.8526C90.2383 11.0225 89.9664 10.3379 89.4302 9.80477C88.8985 9.27165 88.2383 9.00434 87.4649 9.00434C86.6855 9.00434 86.0314 9.27165 85.4937 9.80477C84.9574 10.3379 84.6855 11.0225 84.6855 11.8526C84.6855 12.6828 84.9574 13.3674 85.4937 13.9005Z" fill="black" stroke="black" stroke-width="0.16" stroke-miterlimit="10"/>
<path d="M92.498 15.4136V8.29138H93.631L97.1536 13.8305H97.1944L97.1536 12.4613V8.29138H98.0856V15.4136H97.1128L93.424 9.60118H93.3832L93.424 10.9763V15.4136H92.498Z" fill="black" stroke="black" stroke-width="0.16" stroke-miterlimit="10"/>
<path d="M83.5057 25.8148C80.6673 25.8148 78.3486 27.9384 78.3486 30.8683C78.3486 33.7745 80.6673 35.9204 83.5057 35.9204C86.3501 35.9204 88.6688 33.7745 88.6688 30.8683C88.6688 27.9384 86.3501 25.8148 83.5057 25.8148ZM83.5057 33.9305C81.9483 33.9305 80.6084 32.6667 80.6084 30.8683C80.6084 29.0462 81.9483 27.8047 83.5057 27.8047C85.0631 27.8047 86.409 29.0462 86.409 30.8683C86.409 32.6667 85.0631 33.9305 83.5057 33.9305ZM72.2535 25.8148C69.4091 25.8148 67.0964 27.9384 67.0964 30.8683C67.0964 33.7745 69.4091 35.9204 72.2535 35.9204C75.0964 35.9204 77.4106 33.7745 77.4106 30.8683C77.4106 27.9384 75.0964 25.8148 72.2535 25.8148ZM72.2535 33.9305C70.6946 33.9305 69.3502 32.6667 69.3502 30.8683C69.3502 29.0462 70.6946 27.8047 72.2535 27.8047C73.8109 27.8047 75.1508 29.0462 75.1508 30.8683C75.1508 32.6667 73.8109 33.9305 72.2535 33.9305ZM58.8639 27.3637V29.511H64.0798C63.9273 30.7109 63.5194 31.593 62.894 32.2078C62.1327 32.9503 60.9469 33.7745 58.8639 33.7745C55.6539 33.7745 53.1403 31.2277 53.1403 28.072C53.1403 24.9163 55.6539 22.3695 58.8639 22.3695C60.5995 22.3695 61.8623 23.0363 62.7943 23.9006L64.3336 22.3873C63.03 21.1637 61.2959 20.2236 58.8639 20.2236C54.4621 20.2236 50.7627 23.7446 50.7627 28.072C50.7627 32.3994 54.4621 35.9204 58.8639 35.9204C61.243 35.9204 63.03 35.1541 64.4348 33.7166C65.8744 32.3014 66.323 30.3114 66.323 28.7046C66.323 28.2057 66.2807 27.7468 66.2052 27.3637H58.8639ZM113.616 29.0284C113.191 27.8983 111.882 25.8148 109.214 25.8148C106.571 25.8148 104.37 27.8626 104.37 30.8683C104.37 33.6988 106.548 35.9204 109.468 35.9204C111.829 35.9204 113.191 34.5052 113.752 33.681L111.999 32.533C111.415 33.3736 110.619 33.9305 109.468 33.9305C108.324 33.9305 107.504 33.4151 106.978 32.3994L113.853 29.6031L113.616 29.0284ZM106.607 30.7109C106.548 28.7626 108.146 27.7646 109.291 27.7646C110.188 27.7646 110.95 28.2057 111.203 28.8368L106.607 30.7109ZM101.019 35.613H103.279V20.7627H101.019V35.613ZM97.3183 26.9404H97.2428C96.7352 26.3494 95.767 25.8148 94.5404 25.8148C91.9664 25.8148 89.6129 28.0364 89.6129 30.8847C89.6129 33.7166 91.9664 35.9204 94.5404 35.9204C95.767 35.9204 96.7352 35.3813 97.2428 34.7725H97.3183V35.4972C97.3183 37.4292 96.2685 38.4672 94.5751 38.4672C93.1945 38.4672 92.338 37.4871 91.9845 36.6629L90.0193 37.4693C90.5857 38.8088 92.0857 40.4572 94.5751 40.4572C97.2246 40.4572 99.4603 38.9246 99.4603 35.1957V26.1222H97.3183V26.9404ZM94.7337 33.9305C93.1763 33.9305 91.8727 32.6489 91.8727 30.8847C91.8727 29.1041 93.1763 27.8047 94.7337 27.8047C96.2685 27.8047 97.4784 29.1041 97.4784 30.8847C97.4784 32.6489 96.2685 33.9305 94.7337 33.9305ZM124.196 20.7627H118.791V35.613H121.045V29.9862H124.196C126.699 29.9862 129.153 28.2057 129.153 25.3737C129.153 22.5433 126.693 20.7627 124.196 20.7627ZM124.255 27.9205H121.045V22.8284H124.255C125.937 22.8284 126.898 24.202 126.898 25.3737C126.898 26.5231 125.937 27.9205 124.255 27.9205ZM138.187 25.7866C136.558 25.7866 134.865 26.4934 134.169 28.0601L136.169 28.8843C136.599 28.0601 137.391 27.7928 138.227 27.7928C139.397 27.7928 140.582 28.4834 140.601 29.7026V29.8585C140.193 29.6268 139.32 29.2838 138.246 29.2838C136.091 29.2838 133.897 30.4495 133.897 32.6251C133.897 34.6151 135.661 35.8966 137.644 35.8966C139.161 35.8966 139.998 35.2239 140.523 34.4413H140.601V35.5892H142.777V29.8927C142.777 27.2597 140.777 25.7866 138.187 25.7866ZM137.915 33.9245C137.178 33.9245 136.15 33.5651 136.15 32.6667C136.15 31.5173 137.431 31.0762 138.54 31.0762C139.533 31.0762 139.998 31.2916 140.601 31.5752C140.424 32.9503 139.22 33.9245 137.915 33.9245ZM150.708 26.1118L148.117 32.5494H148.04L145.362 26.1118H142.931L146.955 35.1081L144.659 40.1141H147.014L153.215 26.1118H150.708ZM130.392 35.613H132.652V20.7627H130.392V35.613Z" fill="black"/>
</svg>
